<?xml version="1.0" encoding="UTF-8" standalone="no"?>
<!-- Created with Inkscape (http://www.inkscape.org/) -->

<svg
   xmlns:dc="http://purl.org/dc/elements/1.1/"
   xmlns:cc="http://creativecommons.org/ns#"
   xmlns:rdf="http://www.w3.org/1999/02/22-rdf-syntax-ns#"
   xmlns:svg="http://www.w3.org/2000/svg"
   xmlns="http://www.w3.org/2000/svg"
   xmlns:sodipodi="http://sodipodi.sourceforge.net/DTD/sodipodi-0.dtd"
   xmlns:inkscape="http://www.inkscape.org/namespaces/inkscape"
   width="64px"
   height="64px"
   id="svg2985"
   version="1.1"
   inkscape:version="0.48.2 r9819"
   sodipodi:docname="soh.svg"
   inkscape:export-filename="/home/psingh/Pictures/soh.png"
   inkscape:export-xdpi="90"
   inkscape:export-ydpi="90">
  <defs
     id="defs2987" />
  <sodipodi:namedview
     id="base"
     pagecolor="#ffffff"
     bordercolor="#666666"
     borderopacity="1.0"
     inkscape:pageopacity="0.0"
     inkscape:pageshadow="2"
     inkscape:zoom="7.7781746"
     inkscape:cx="-9.5321739"
     inkscape:cy="44.854012"
     inkscape:current-layer="layer2"
     showgrid="true"
     inkscape:document-units="px"
     inkscape:grid-bbox="true"
     inkscape:window-width="1920"
     inkscape:window-height="1152"
     inkscape:window-x="0"
     inkscape:window-y="0"
     inkscape:window-maximized="1" />
  <metadata
     id="metadata2990">
    <rdf:RDF>
      <cc:Work
         rdf:about="">
        <dc:format>image/svg+xml</dc:format>
        <dc:type
           rdf:resource="http://purl.org/dc/dcmitype/StillImage" />
      </cc:Work>
    </rdf:RDF>
  </metadata>
  <g
     inkscape:groupmode="layer"
     id="layer2"
     inkscape:label="background">
    <path
       sodipodi:type="arc"
       style="fill:#ff6600;stroke:#ff6600"
       id="path3170"
       sodipodi:cx="33.169735"
       sodipodi:cy="30.508852"
       sodipodi:rx="34.84108"
       sodipodi:ry="31.819805"
       d="m 68.010815,30.508852 a 34.84108,31.819805 0 1 1 -69.6821598,0 34.84108,31.819805 0 1 1 69.6821598,0 z"
       transform="matrix(0.91111636,0,0,0.94725145,1.7535435,3.1185966)" />
  </g>
  <g
     id="layer1"
     inkscape:label="Layer 1"
     inkscape:groupmode="layer">
    <g
       style="font-weight:normal;fill-rule:nonzero;stroke-miterlimit:10;font-family:Times New Roman"
       id="g3161"
       transform="matrix(0.55924686,0.21804841,-0.20973045,0.58142672,-72.471555,18.051921)">
      <path
         id="path3101"
         d="m 151.98,-4.17 c -1.76,-0.83 -3.59,-1.49 -5.31,-2.39 -2.1,-1.1 -4.01,-2.54 -5.73,-4.17 -1.78,-1.68 -3.38,-3.56 -4.69,-5.62 -0.92,-1.46 -1.67,-3.17 -0.94,-4.69 0.19,-0.38 0.46,-0.71 0.73,-1.04 0.34,-0.42 0.72,-0.86 1.25,-0.94 0.75,-0.11 1.35,0.49 1.77,1.14 2.27,3.48 2.36,8.66 6.36,10.21 6.71,2.61 15.07,5.49 9.7,8.03 -1.01,0.47 -2.12,-0.04 -3.14,-0.53 z"
         inkscape:connector-curvature="0"
         style="fill:#9c331b;stroke:none" />
      <path
         id="path3103"
         d="m 150,-5.73 c 3.95,-3.27 9.37,-3.32 14.48,-3.54 6.33,-0.28 12.62,-1.03 18.85,-2.19 6.49,-1.2 13.06,-2.93 18.02,-7.29 1.89,-1.66 3.45,-3.64 5.11,-5.52 0.71,-0.81 1.69,-1.49 2.5,-0.94 0.72,0.5 0.55,1.52 0.21,2.4 -0.54,1.36 -1.2,2.66 -1.88,3.96 -0.71,1.36 -1.43,2.72 -2.19,4.06 -1.03,1.83 -2.14,3.63 -3.64,5.1 -1.38,1.35 -3.04,2.35 -4.69,3.34 -2.42,1.43 -4.87,2.84 -7.5,3.85 -3.23,1.24 -6.66,1.83 -10.1,2.19 -2.76,0.28 -5.54,0.42 -8.31,0.36 -2.93,-0.06 -5.85,-0.33 -8.72,-0.9 -1.82,-0.37 -3.62,-0.85 -5.37,-1.47 -2.31,-0.81 -4.52,-1.86 -6.8,-2.74 -0.07,-0.03 -0.13,-0.05 -0.17,-0.1 -0.14,-0.17 0,-0.41 0.2,-0.57 z"
         inkscape:connector-curvature="0"
         style="fill:#732623;stroke:none" />
      <path
         id="path3105"
         d="m 158.43,-2.59 c -2.65,-0.79 -5.26,-1.72 -7.8,-2.83 -2.97,-1.29 -5.85,-2.81 -8.34,-4.89 -1.02,-0.86 -1.96,-1.8 -2.81,-2.82 -0.73,-0.87 -1.39,-1.8 -2.08,-2.7 -0.57,-0.74 -1.15,-1.47 -1.57,-2.3 -0.07,-0.14 -0.12,-0.32 0,-0.41 0.09,-0.07 0.21,-0.04 0.32,0 1.41,0.52 2.42,1.7 3.43,2.81 1.11,1.22 2.27,2.39 3.55,3.44 1.26,1.03 2.62,1.94 4.06,2.71 1.98,1.05 4.1,1.84 6.25,2.5 6.43,1.96 13.13,2.76 19.79,3.64 1.94,0.26 3.91,0.52 5.83,0.11 1.55,-0.34 2.97,-1.11 4.48,-1.57 2.6,-0.78 5.47,-0.68 7.81,-2.08 2.21,-1.32 3.46,-3.68 5,-5.73 3.41,-4.51 8.64,-8.06 9.28,-13.75 0.22,-1.98 1.29,-3.64 2.5,-2.92 0.6,0.37 0.58,1.17 0.62,1.88 0.04,0.84 0.26,1.66 0.21,2.5 -0.04,0.61 -0.23,1.19 -0.42,1.77 -0.4,1.23 -0.83,2.46 -1.35,3.65 -1.51,3.4 -3.77,6.39 -6.36,9.06 -1.4,1.45 -2.91,2.82 -4.58,3.96 -1.78,1.21 -3.72,2.16 -5.73,2.91 -2.99,1.13 -6.11,1.81 -9.27,2.3 -3.38,0.51 -6.79,0.79 -10.21,0.73 -3.37,-0.07 -6.72,-0.46 -10,-1.26 -0.87,-0.21 -1.74,-0.45 -2.61,-0.71 z"
         inkscape:connector-curvature="0"
         style="fill:#8e1305;stroke:none" />
      <path
         id="path3107"
         d="m 150.63,-8.33 c 2.95,-2.13 6.67,-0.07 10.2,0.73 1.93,0.43 3.98,0.43 5.73,1.35 1.57,0.82 2.92,2.32 4.69,2.08 1.5,-0.2 3.26,-0.69 3.33,0.63 0.04,0.66 -0.64,1.05 -1.32,1.26 -3.16,0.96 -6.52,0.69 -9.73,-0.11 -2.07,-0.51 -4.08,-1.24 -6.02,-2.12 -2.14,-0.98 -4.22,-2.15 -6.49,-2.78 -0.36,-0.1 -0.74,-0.28 -0.71,-0.63 0.02,-0.18 0.17,-0.31 0.32,-0.41 z"
         inkscape:connector-curvature="0"
         style="fill:#8c0000;stroke:none" />
      <path
         id="path3109"
         d="m 171.35,-12.19 c 4.81,0.79 9.02,-2.41 12.82,-5.52 3.47,-2.84 6.97,-5.65 10.41,-8.54 1.69,-1.42 3.42,-3.02 3.55,-5.21 0.08,-1.52 -0.63,-3.21 0.41,-4.37 1.65,-1.83 4.33,0.03 6.25,2.39 1.33,1.62 2.94,3.22 2.92,5.31 -0.02,1.79 -1.25,3.22 -2.4,4.59 -2.47,2.94 -4.73,6.08 -7.5,8.75 -4.86,4.69 -11.22,7.81 -17.91,7.08 -3.08,-0.33 -6.13,-1.51 -9.17,-0.83 -3.32,0.74 -7.11,1.59 -7.5,-1.25 -0.44,-3.15 4.01,-3.08 8.12,-2.4 z"
         inkscape:connector-curvature="0"
         style="fill:#ce0000;stroke:none" />
      <path
         id="path3111"
         d="m 151.46,-15.94 c 6.63,-1.94 13.59,-2.51 20.21,-4.48 4.99,-1.48 9.7,-3.74 14.27,-6.25 4.3,-2.36 8.52,-4.98 11.66,-8.75 0.61,-0.72 1.25,-1.51 2.19,-1.56 2.21,-0.11 2.95,2.93 1.67,5.73 -1.41,3.08 -3.26,5.93 -5.42,8.54 -2.87,3.48 -6.27,6.52 -10.31,8.54 -5.41,2.71 -11.52,3.37 -17.49,4.25 -4.87,0.72 -9.75,1.6 -14.66,1.15 -3.32,-0.3 -6.22,-2.33 -5.35,-4.88 0.45,-1.32 1.87,-1.89 3.23,-2.29 z"
         inkscape:connector-curvature="0"
         style="fill:#ec1c19;stroke:none" />
      <path
         id="path3113"
         d="m 135.83,-20.83 c -0.04,-0.18 0.03,-0.36 0.11,-0.52 0.75,-1.59 2.34,-2.53 4.06,-2.92 2.06,-0.47 4.19,-0.16 6.25,0.31 1.79,0.41 3.55,0.94 5.31,1.46 1.73,0.51 3.47,1.01 5.21,1.46 1.27,0.33 2.55,0.63 3.86,0.83 0.5,0.08 1.03,0.27 1.04,0.73 0.01,0.7 -0.97,0.75 -1.88,0.42 -2.6,-0.95 -5.23,0.67 -7.91,1.14 -1.48,0.26 -2.99,0.17 -4.48,0 -2.99,-0.32 -5.93,-0.9 -8.86,-1.56 -0.85,-0.19 -1.71,-0.4 -2.39,-0.94 -0.14,-0.11 -0.28,-0.24 -0.32,-0.41 z"
         inkscape:connector-curvature="0"
         style="fill:#d32b02;stroke:none" />
      <path
         id="path3115"
         d="m 143.13,-16.77 c -1.39,-0.5 -2.59,-1.38 -3.65,-2.4 -0.32,-0.3 -0.63,-0.62 -0.94,-0.93 -0.27,-0.28 -0.55,-0.56 -0.62,-0.94 -0.21,-1.1 1.07,-1.74 2.39,-1.88 1.56,-0.16 3.13,-0.25 4.69,-0.1 1.71,0.16 3.37,0.62 5,1.14 4.14,1.33 8.26,3.1 12.6,2.71 3.67,-0.32 7.53,-2.06 10.63,0 1.79,1.2 2.66,3.4 1.98,5.42 -1.02,3.04 -4.57,3.95 -7.92,4.06 -2.37,0.08 -4.75,-0.04 -7.08,-0.52 -5.79,-1.2 -10.85,-4.53 -16.46,-6.35 -0.21,-0.07 -0.42,-0.14 -0.62,-0.21 z"
         inkscape:connector-curvature="0"
         style="fill:#e10d04;stroke:none" />
      <path
         id="path3117"
         d="m 142.19,-21.15 c 0.19,-0.62 0.81,-0.96 1.46,-1.14 1.22,-0.34 2.5,-0.24 3.75,0 2.14,0.4 4.18,1.18 6.25,1.87 4.93,1.67 10.22,2.87 15.1,1.04 2.53,-0.94 4.68,-2.65 6.46,-4.68 2.03,-2.33 3.57,-5.07 5.73,-7.29 2.57,-2.65 5.87,-4.41 9.27,-5.84 0.75,-0.31 1.51,-0.61 2.29,-0.83 1.3,-0.37 2.72,-0.07 2.81,1.04 0.01,0.04 0.01,0.07 0,0.1 -0.03,0.33 -0.39,0.45 -0.73,0.53 -1.76,0.4 -3.36,1.29 -4.79,2.39 -1.14,0.88 -2.17,1.9 -2.91,3.13 -0.63,1.02 -1.02,2.16 -1.57,3.23 -0.77,1.52 -1.84,2.87 -2.81,4.27 -2.96,4.26 -5.44,9.27 -10.31,11.14 -2.64,1.02 -5.53,0.86 -8.34,0.52 -3.36,-0.4 -6.72,-1.04 -9.79,-2.5 -2.77,-1.32 -5.24,-3.29 -8.23,-4.06 -1.51,-0.39 -3.26,-0.71 -3.64,-2.19 -0.06,-0.24 -0.07,-0.49 0,-0.73 z"
         inkscape:connector-curvature="0"
         style="fill:#ec1c19;stroke:none" />
      <path
         id="path3119"
         d="m 148.54,-19.38 c 0.41,-0.22 0.9,-0.11 1.36,0 3.35,0.85 6.75,1.48 10.2,1.67 2.97,0.17 5.96,0.02 8.86,-0.62 2.76,-0.62 5.41,-1.68 7.71,-3.34 3.56,-2.57 5.97,-6.37 9.16,-9.37 1.4,-1.32 2.95,-2.47 4.38,-3.75 2.84,-2.55 6.49,-4.58 8.54,-2.09 0.91,1.11 0.79,2.66 0.42,4.07 -0.89,3.39 -2.87,6.35 -5.21,8.96 -1.48,1.65 -3.11,3.16 -4.9,4.47 -3.14,2.31 -6.7,3.95 -10.41,5.11 -2.81,0.88 -5.71,1.49 -8.65,1.67 -4.61,0.27 -9.2,-0.53 -13.65,-1.78 -2.29,-0.64 -4.55,-1.4 -6.66,-2.5 -0.52,-0.26 -1.03,-0.56 -1.36,-1.04 -0.19,-0.28 -0.29,-0.61 -0.2,-0.93 0.06,-0.23 0.21,-0.41 0.41,-0.53 z"
         inkscape:connector-curvature="0"
         style="fill:#ea3927;stroke:none" />
      <path
         id="path3121"
         d="m 152.29,-20.73 c -0.13,-0.22 0.13,-0.46 0.48,-0.51 2.53,-0.39 5,0.76 7.54,0.93 0.56,0.03 1.11,0.02 1.67,0 1.72,-0.08 3.44,-0.27 5.1,-0.73 1.72,-0.48 3.36,-1.23 4.8,-2.29 1.5,-1.12 2.73,-2.54 3.95,-3.96 1.75,-2.04 3.48,-4.09 5.42,-5.94 1.91,-1.82 4.03,-3.44 6.46,-4.48 1.39,-0.59 2.86,-0.98 4.37,-1.04 0.66,-0.03 1.33,0.01 1.98,-0.1 0.6,-0.11 1.27,-0.1 1.36,0.41 0.07,0.46 -0.44,0.71 -0.94,0.84 -0.89,0.21 -1.75,0.5 -2.6,0.83 -0.83,0.32 -1.64,0.68 -2.4,1.14 -1.23,0.75 -2.28,1.74 -3.33,2.71 -1.99,1.84 -4,3.64 -5.84,5.63 -1.13,1.23 -2.19,2.52 -3.43,3.64 -2.28,2.06 -5.06,3.46 -8.03,4.27 -0.61,0.17 -1.24,0.32 -1.87,0.42 -4.83,0.8 -9.64,-0.64 -14.42,-1.63 -0.1,-0.02 -0.21,-0.05 -0.27,-0.14 z"
         inkscape:connector-curvature="0"
         style="fill:#e50000;stroke:none" />
      <path
         id="path3123"
         d="m 182.29,-21.56 c 1.11,-1.33 2.07,-2.77 2.92,-4.27 0.81,-1.45 1.52,-2.96 2.39,-4.38 1,-1.62 2.27,-3.14 4.07,-3.75 0.77,-0.26 1.59,-0.33 2.39,-0.21 0.96,0.15 1.89,0.59 2.29,1.46 0.47,1 0.06,2.12 -0.41,3.13 -0.57,1.19 -1.21,2.36 -1.98,3.43 -0.68,0.95 -1.45,1.82 -2.29,2.61 -0.24,0.22 -0.48,0.43 -0.73,0.62 -0.71,0.54 -1.52,0.93 -2.29,1.36 -0.82,0.45 -1.62,0.95 -2.5,1.25 -0.41,0.13 -0.83,0.22 -1.25,0.31 -0.94,0.19 -1.99,0.29 -2.61,-0.42 -0.2,-0.23 -0.32,-0.54 -0.21,-0.83 0.05,-0.12 0.13,-0.22 0.21,-0.31 z"
         inkscape:connector-curvature="0"
         style="fill:#ff4a49;stroke:none" />
      <path
         id="path3125"
         d="m 208.96,-24.79 c 0,-0.15 -0.06,-0.28 -0.11,-0.42 -0.06,-0.2 -0.09,-0.41 -0.1,-0.62 -0.01,-0.28 0.02,-0.56 0,-0.84 -0.02,-0.28 -0.09,-0.56 -0.21,-0.83 -0.11,-0.26 -0.25,-0.5 -0.41,-0.73 -0.18,-0.24 -0.36,-0.48 -0.53,-0.73 -0.08,-0.13 -0.16,-0.27 -0.31,-0.31 -0.06,-0.02 -0.12,-0.06 -0.1,-0.11 0,0 0,0 0,0 0,0 0,0 0,0 0.22,-0.03 -0.12,0.11 -0.11,0 0.01,-0.03 0.01,-0.07 0,-0.1 -0.07,-0.31 -1.39,-0.96 -0.52,-0.73 0.17,0.05 0.47,0.82 0.42,0.31 -0.01,-0.05 -0.07,-0.06 -0.1,-0.1 -0.03,-0.03 -0.04,-0.08 0,-0.1 0,0 0,0 0,0 0,0 0,0 0,0 0,0 0,0 0,0 0.11,0 0.21,0.05 0.31,0.1 0.11,0.06 0.24,0.09 0.31,0 0.04,-0.06 0.03,-0.14 0,-0.21 -0.01,-0.03 -0.03,-0.08 0,-0.1 0,0 0,0 0,0 0,0 0,0 0,0 0,0 0,0 0,0 0.08,0 0.15,0.05 0.21,0.1 0.07,0.07 0.13,0.15 0.21,0.21 0.15,0.11 0.34,0.14 0.52,0.21 0.37,0.15 0.59,0.52 0.83,0.83 0.26,0.34 0.57,0.65 0.73,1.04 0.17,0.43 0.13,0.9 0.1,1.36 -0.05,0.85 -0.05,1.77 0.53,2.39 0.05,0.06 0.11,0.13 0.1,0.21 -0.04,0.24 -0.35,0.09 -0.63,-0.1 -0.35,-0.25 -1.05,-0.02 -1.14,-0.52 -0.01,-0.07 0,-0.14 0,-0.21 z"
         inkscape:connector-curvature="0"
         style="fill:#807c2d;stroke:none" />
      <path
         id="path3127"
         d="m 135.63,-19.27 c -0.04,-0.17 -0.07,-0.35 -0.11,-0.52 -0.1,-0.43 -0.16,-0.92 0.21,-1.04 0.1,-0.04 0.21,-0.02 0.31,0 1.47,0.26 2.77,1.04 4.06,1.77 1.37,0.76 2.77,1.48 4.17,2.18 2.76,1.4 5.54,2.78 8.44,3.86 3.21,1.2 6.54,2.03 9.89,2.71 6.8,1.38 13.83,2.14 20.53,0.31 5.31,-1.45 10.07,-4.48 13.54,-8.75 1.87,-2.31 3.31,-4.92 4.79,-7.5 0.79,-1.39 1.6,-2.78 2.39,-4.17 0.35,-0.61 0.77,-1.26 1.46,-1.35 1.32,-0.18 2.05,1.4 1.88,3.02 -0.31,2.81 -1.72,5.32 -3.23,7.71 -1.7,2.68 -3.55,5.29 -5.83,7.5 -4.96,4.78 -11.54,7.34 -18.34,8.44 -6.05,0.97 -12.25,0.81 -18.12,-0.94 -4.02,-1.2 -7.77,-3.13 -11.57,-4.9 -3.62,-1.69 -7.3,-3.24 -10.93,-4.89 -1.36,-0.62 -2.78,-1.33 -3.34,-2.71 -0.09,-0.24 -0.16,-0.48 -0.2,-0.73 z"
         inkscape:connector-curvature="0"
         style="fill:#c10000;stroke:none" />
      <path
         id="path3129"
         d="m 201.77,-35 c 0.02,-0.03 0.07,-0.03 0.11,0 0.03,0.03 0.06,0.07 0.1,0.1 0.14,0.14 0.34,0.16 0.52,0.21 0.47,0.14 0.83,0.5 1.25,0.73 0.52,0.29 1.15,0.4 1.56,0.83 0.45,0.47 0.52,1.18 0.94,1.67 0.11,0.13 0.26,0.25 0.31,0.42 0.09,0.25 -0.02,0.58 0.21,0.73 0.04,0.03 0.1,0.05 0.11,0.1 0,0.04 -0.03,0.08 0,0.11 0,0 0,0 0,0 0.04,-0.03 0,-0.11 -0.11,-0.11 -0.35,0.02 -0.46,-0.4 -0.62,-0.73 -0.13,-0.24 -0.33,-0.44 -0.52,-0.62 -0.4,-0.37 -0.81,-0.73 -1.15,-1.15 -0.43,-0.52 -0.76,-1.14 -1.35,-1.46 -0.28,-0.14 -0.6,-0.21 -0.84,-0.41 -0.13,-0.12 -0.24,-0.27 -0.41,-0.32 -0.07,-0.01 -0.14,-0.05 -0.11,-0.1 z"
         inkscape:connector-curvature="0"
         style="fill:#732623;stroke:none" />
      <path
         id="path3131"
         d="m 208.23,-36.25 c 0.05,0 0.09,0.05 0.1,0.1 0.02,0.07 0.01,0.14 0,0.21 -0.01,0.23 0.09,0.44 0.21,0.63 0.19,0.3 0.42,0.57 0.73,0.73 0.52,0.25 1.13,0.12 1.67,0.31 0.28,0.1 0.53,0.29 0.73,0.52 0.06,0.08 0.12,0.16 0.21,0.21 0.11,0.06 0.17,0.16 0.1,0.21 -0.03,0.01 -0.07,-0.01 -0.1,0 -0.13,0 -0.12,0.17 -0.11,0.31 0.04,0.4 -0.34,0.66 -0.73,0.83 -0.47,0.21 -0.98,0.38 -1.46,0.21 -0.57,-0.2 -0.85,-0.82 -1.35,-1.15 -0.9,-0.58 -2.51,-0.5 -2.4,-1.66 0.08,-0.76 1,-0.9 1.67,-1.25 0.17,-0.09 0.33,-0.2 0.52,-0.21 0.04,0 0.07,0 0.11,0 0.03,0 0.06,0 0.1,0 0,0 0,0 0,0 z"
         inkscape:connector-curvature="0"
         style="fill:#788042;stroke:none" />
      <path
         id="path3133"
         d="m 198.62,-38 c -0.96,-0.25 -1.61,-1.1 -2.47,-1.58 -0.52,-0.29 -1.09,-0.43 -1.67,-0.52 -0.45,-0.07 -0.9,-0.11 -1.35,-0.11 -0.39,0.01 -0.77,0.04 -1.15,0 -0.13,-0.01 -0.26,-0.03 -0.37,0.02 -0.06,0.03 -0.11,0.08 -0.18,0.1 -0.04,0.01 -0.08,0.01 -0.11,-0.03 -0.02,-0.03 -0.01,-0.07 0,-0.11 0.06,-0.16 0.11,-0.33 0.14,-0.5 0.04,-0.33 -0.04,-0.67 -0.31,-0.83 -0.07,-0.04 -0.15,-0.06 -0.21,-0.11 -0.26,-0.17 -0.25,-0.52 -0.31,-0.83 -0.06,-0.29 -0.21,-0.56 -0.32,-0.83 -0.12,-0.31 -0.19,-0.63 -0.31,-0.94 -0.03,-0.07 -0.05,-0.16 0,-0.21 0.08,-0.09 0.21,0.01 0.31,0.1 0.21,0.2 0.53,0.23 0.73,0.42 0.13,0.12 0.19,0.29 0.31,0.42 0.44,0.46 1.15,0.2 1.78,0 1.07,-0.34 2.23,-0.25 3.33,0 0.34,0.08 0.7,0.2 0.83,0.52 0.08,0.2 0.04,0.42 0.11,0.62 0.04,0.12 0.11,0.23 0.2,0.32 0.09,0.09 0.2,0.16 0.32,0.2 0.2,0.08 0.41,0.07 0.62,0.11 0.25,0.04 0.48,0.18 0.52,0.42 0.01,0.03 0.01,0.07 0,0.1 -0.01,0.07 -0.05,0.15 0,0.21 0,0 0,0 0,0 0,0 0,0 0,0 0,0 0,0 0,0 0.04,0 0.03,0.05 0,0.1 -0.01,0.03 0,0.07 0,0.11 0.04,0.17 0,0.34 0,0.52 0.01,0.33 0.14,0.65 0.32,0.93 0.21,0.36 0.46,0.74 0.27,1.09 -0.17,0.35 -0.63,0.4 -1.03,0.29 z"
         inkscape:connector-curvature="0"
         style="fill:#788042;stroke:none" />
      <path
         id="path3135"
         d="m 199.58,-41.88 c -0.47,-0.3 -0.72,-0.83 -0.93,-1.35 -0.48,-1.16 -0.87,-2.39 -0.73,-3.65 0.07,-0.66 0.3,-1.33 0.1,-1.97 -0.01,-0.04 -0.02,-0.08 0,-0.11 0.06,-0.08 0.21,0.01 0.21,0.21 -0.01,1.05 1.26,1.36 2.19,1.87 0.47,0.27 0.87,0.66 1.25,1.05 0.29,0.3 0.58,0.61 0.93,0.83 0.05,0.03 0.09,0.06 0.11,0.1 0.01,0.04 0,0.07 0,0.11 -0.01,0.07 0,0.14 0,0.21 0.01,0.2 0,0.41 0,0.62 0,0.27 0,0.56 -0.21,0.73 -0.29,0.23 -0.68,0.02 -1.04,0 -0.39,-0.02 -0.74,0.19 -0.94,0.52 -0.16,0.27 -0.23,0.62 -0.52,0.73 -0.07,0.03 -0.16,0.04 -0.21,0.1 -0.02,0.04 -0.03,0.08 0,0.11 0,0 0,0 0,0 0,0 0,0 0,0 0.14,0.01 -0.07,0.08 -0.1,0 -0.02,-0.05 -0.06,-0.08 -0.11,-0.11 z"
         inkscape:connector-curvature="0"
         style="fill:#788042;stroke:none" />
      <path
         id="path3137"
         d="m 205.63,-38.23 c 0.33,0.19 0.71,-0.01 1.02,-0.26 1.01,-0.83 1.61,-2.02 2.07,-3.23 1.02,-2.67 1.44,-5.54 1.18,-8.38 -0.22,-2.36 -0.93,-4.69 -2.61,-6.36 -0.21,-0.21 -0.44,-0.43 -0.41,-0.73 0.02,-0.26 0.23,-0.44 0.41,-0.62 0.21,-0.22 0.44,-0.47 0.73,-0.42 0.18,0.03 0.3,0.17 0.42,0.31 1.2,1.47 2.07,3.18 2.6,5 0.94,3.23 0.76,6.65 -0.1,9.9 -0.35,1.32 -0.81,2.6 -1.36,3.85 -0.31,0.71 -0.65,1.41 -1.04,2.09 -0.11,0.19 -0.23,0.39 -0.41,0.52 -0.5,0.34 -1.13,0.09 -1.67,-0.21 -0.63,-0.35 -1.15,-0.93 -0.83,-1.46 0,0 0,0 0,0 z"
         inkscape:connector-curvature="0"
         style="fill:#4d4a29;stroke:none" />
      <path
         id="path3139"
         d="m 185.73,-22.08 c -0.87,-1.21 0.66,-2.39 1.77,-3.55 1.27,-1.31 1.53,-3.29 2.71,-4.68 0.7,-0.83 1.65,-1.36 2.6,-1.88 0.68,-0.36 1.5,-0.57 1.88,0 0.41,0.63 -0.24,1.31 -0.84,1.88 -1.17,1.11 -1.69,2.71 -2.7,3.96 -0.93,1.13 -2.23,1.93 -3.04,3.16 -0.6,0.91 -1.4,1.84 -2.17,1.31 -0.08,-0.05 -0.15,-0.12 -0.21,-0.2 z"
         inkscape:connector-curvature="0"
         style="fill:#ff8382;stroke:none" />
      <path
         id="path3141"
         d="m 197.29,-37.5 c 2.76,2.66 -3.04,2.2 -7.08,2.71 -1.8,0.23 -2.73,2.03 -3.75,3.54 -1.04,1.54 -2.37,2.84 -3.54,4.27 -1,1.22 -1.9,2.55 -3.13,3.54 -1.43,1.16 -3.2,1.79 -5,2.19 -0.95,0.21 -1.92,0.37 -2.79,0.81 -0.04,0.02 -0.08,0.03 -0.1,0 -0.02,-0.02 -0.01,-0.05 0.01,-0.08 1.02,-1.79 2.99,-2.67 4.65,-3.86 2.7,-1.91 4.61,-4.68 6.88,-7.08 2.32,-2.44 5.03,-4.5 8.12,-5.83 1.68,-0.72 3.53,-1.21 5.21,-0.52 0.19,0.07 0.37,0.17 0.52,0.31 z"
         inkscape:connector-curvature="0"
         style="fill:#f70000;stroke:none" />
      <path
         id="path3143"
         d="m 162.08,-5.21 c -2.21,-0.54 -4.44,-1.04 -6.66,-1.56 -2.91,-0.68 -5.82,-1.38 -8.54,-2.61 -1.46,-0.65 -2.85,-1.46 -4.07,-2.5 -0.76,-0.65 -1.45,-1.39 -2.18,-2.08 -1.37,-1.28 -2.89,-2.37 -4.26,-3.65 -0.22,-0.2 -0.32,-0.5 -0.12,-0.62 0.1,-0.05 0.21,-0.02 0.31,0.03 1.76,0.74 3.37,1.8 5,2.78 0.96,0.58 1.93,1.14 2.92,1.67 2,1.08 4.05,2.05 6.15,2.92 3.67,1.51 7.48,2.69 11.35,3.64 6.91,1.7 14.08,2.65 21.04,1.15 4.22,-0.91 8.2,-2.71 11.56,-5.42 3.47,-2.79 6.13,-6.44 8.13,-10.42 1.21,-2.4 2.17,-4.91 3.44,-7.29 0.16,-0.31 0.38,-0.63 0.73,-0.62 0.11,0 0.21,0.05 0.31,0.1 0.37,0.23 0.59,0.63 0.73,1.04 0.22,0.71 0.22,1.46 0.1,2.19 -0.16,0.95 -0.52,1.85 -0.94,2.71 -0.85,1.75 -1.94,3.38 -3.02,5 -1.42,2.14 -2.82,4.3 -4.37,6.35 -1.34,1.78 -2.81,3.49 -4.69,4.69 -1.05,0.67 -2.2,1.16 -3.33,1.67 -1.28,0.57 -2.54,1.18 -3.86,1.66 -1.25,0.47 -2.54,0.82 -3.85,1.05 -1.62,0.28 -3.26,0.38 -4.9,0.31 -0.59,-0.03 -1.18,-0.08 -1.77,-0.11 -1.56,-0.07 -3.12,-0.01 -4.69,-0.1 -3.57,-0.19 -7.04,-1.13 -10.52,-1.98 z"
         inkscape:connector-curvature="0"
         style="fill:#9c0000;stroke:none" />
      <path
         id="path3145"
         d="m 158.44,-15.21 c -1.41,-0.55 -2.9,-0.82 -4.38,-1.14 -1.49,-0.33 -2.99,-0.72 -4.27,-1.57 -0.16,-0.1 -0.3,-0.27 -0.21,-0.41 0.06,-0.1 0.2,-0.11 0.32,-0.11 1.6,0.06 3.2,0.29 4.79,0.52 2.97,0.44 5.95,0.89 8.96,0.84 1.32,-0.02 2.64,-0.14 3.95,-0.32 2.27,-0.29 4.53,-0.75 6.67,-1.56 0.73,-0.27 1.45,-0.59 2.19,-0.83 0.81,-0.27 1.66,-0.46 2.5,-0.31 0.55,0.09 1.08,0.34 1.35,0.83 0.43,0.79 0.02,1.71 -0.62,2.39 -1.17,1.24 -2.82,1.82 -4.48,2.19 -1.68,0.38 -3.39,0.59 -5.11,0.73 -3.76,0.32 -7.62,0.35 -11.14,-1.04 -0.18,-0.07 -0.35,-0.14 -0.52,-0.21 z"
         inkscape:connector-curvature="0"
         style="fill:#ff4a49;stroke:none" />
      <path
         id="path3147"
         d="m 160.31,-15.63 c -0.26,-0.09 -0.5,-0.29 -0.41,-0.52 0.06,-0.19 0.3,-0.21 0.52,-0.2 1.87,0.07 3.75,0.1 5.62,0 2.08,-0.12 4.14,-0.41 6.15,-0.94 1.72,-0.46 3.42,-1.1 5.21,-1.04 0.31,0.01 0.65,0.05 0.83,0.31 0.35,0.49 -0.11,1.11 -0.73,1.46 -1.56,0.88 -3.33,1.23 -5.1,1.46 -2.77,0.35 -5.56,0.43 -8.34,0.2 -1.27,-0.1 -2.55,-0.27 -3.75,-0.73 z"
         inkscape:connector-curvature="0"
         style="fill:#ff8382;stroke:none" />
      <path
         id="path3149"
         d="m 210.63,-26.98 c 0.03,-0.03 -0.02,-0.07 0,-0.1 0,0 0,0 0,0 0.16,0.11 0.27,-0.23 0,-0.52 -0.27,-0.28 -0.08,-0.75 -0.32,-1.05 -0.32,-0.4 -0.97,-0.1 -1.35,-0.41 -0.04,-0.03 -0.07,-0.07 -0.11,-0.11 -0.28,-0.3 -0.61,-0.56 -0.93,-0.83 -0.21,-0.17 -0.42,-0.35 -0.63,-0.52 -0.48,-0.41 -0.8,-1 -0.41,-1.36 0.21,-0.2 0.53,-0.14 0.83,-0.1 0.07,0.01 0.14,0.02 0.21,0 0.39,-0.08 0.42,-0.59 0.31,-1.04 -0.13,-0.52 -0.26,-1.06 -0.63,-1.46 -0.39,-0.44 -0.98,-0.62 -1.56,-0.73 -0.69,-0.12 -1.39,-0.15 -2.08,-0.21 -0.56,-0.04 -1.11,-0.12 -1.67,-0.1 -0.18,0 -0.38,0.01 -0.52,-0.11 -0.05,-0.03 -0.1,-0.03 -0.1,0 0,0 0,0 0,0 0.12,-0.12 -0.12,0.08 -0.11,0 0.02,-0.08 -0.04,-0.14 -0.1,-0.2 -0.14,-0.14 -0.28,-0.29 -0.42,-0.42 -0.23,-0.22 -0.49,-0.41 -0.73,-0.63 -0.13,-0.11 -0.26,-0.24 -0.31,-0.41 -0.05,-0.21 0.03,-0.42 0,-0.63 -0.03,-0.23 -0.2,-0.42 -0.31,-0.62 -0.15,-0.26 -0.21,-0.56 -0.31,-0.84 -0.12,-0.3 -0.3,-0.6 -0.32,-0.93 -0.01,-0.18 0.03,-0.35 0,-0.52 0,-0.04 -0.01,-0.07 0,-0.11 0.02,-0.04 0.04,-0.1 0,-0.1 -0.03,-0.01 -0.05,0.06 0,0.1 0.04,0.04 0.08,0.07 0.11,0.11 0.11,0.15 0.11,0.35 0.21,0.52 0.12,0.22 0.37,0.33 0.62,0.31 0.21,-0.02 0.4,-0.13 0.52,-0.31 0.1,-0.16 0.14,-0.34 0.11,-0.52 -0.04,-0.24 -0.18,-0.43 -0.32,-0.63 -0.08,-0.11 -0.18,-0.23 -0.31,-0.21 -0.08,0.02 -0.17,0.07 -0.21,0 -0.02,-0.03 0,-0.07 0,-0.1 0,-0.04 -0.01,-0.07 0,-0.11 0.03,-0.08 0.13,-0.08 0.21,-0.1 0.31,-0.07 0.39,-0.43 0.52,-0.73 0.15,-0.35 0.46,-0.63 0.83,-0.62 0.4,0 0.81,0.36 1.15,0.1 0.21,-0.16 0.2,-0.46 0.21,-0.73 0.01,-0.21 0.04,-0.42 0,-0.62 -0.02,-0.07 -0.04,-0.15 0,-0.21 0.02,-0.05 0.04,-0.1 0,-0.11 -0.05,0 -0.07,0.08 0,0.11 0,0 0,0 0,0 0.24,-0.05 0.27,0.29 0.21,0.62 -0.11,0.55 0.31,1 0.62,1.46 0.37,0.54 0.57,1.17 0.84,1.77 0.22,0.53 0.5,1.04 0.72,1.56 0.17,0.38 0.31,0.78 0.63,1.05 0.6,0.5 1.48,0.32 2.19,0.62 0.45,0.19 0.88,0.58 1.35,0.42 0.16,-0.05 0.33,-0.13 0.42,0 0.04,0.06 0.02,0.14 0,0.21 -0.24,0.62 -1,0.72 -1.67,0.83 -0.19,0.03 -0.38,0.08 -0.52,0.21 -0.32,0.31 -0.18,0.81 0,1.25 0.46,1.15 0.91,2.45 2.08,2.81 0.5,0.15 1.04,0.08 1.46,-0.21 0.31,-0.21 0.53,-0.52 0.73,-0.83 0.06,-0.1 0.12,-0.2 0.11,-0.31 -0.01,-0.04 -0.02,-0.08 0,-0.11 0.02,-0.04 0.08,-0.04 0.1,0 0.02,0.03 0,0.07 0,0.11 -0.01,0.08 0.05,0.14 0.1,0.2 0.59,0.66 1.01,1.44 1.46,2.19 0.52,0.86 1.09,1.69 1.67,2.5 0.29,0.42 0.59,0.89 0.42,1.36 -0.02,0.03 -0.03,0.07 0,0.1 0,0 0,0 0,0 1.04,-0.44 -0.62,-0.75 -1.88,-0.94 -0.92,-0.14 -2.13,-3.37 -2.71,-1.35 -0.14,0.49 0.59,0.86 0.42,1.35 -0.15,0.41 -0.91,0.44 -0.83,0.94 0,0 0,0 0,0 z"
         inkscape:connector-curvature="0"
         style="fill:#5f8739;stroke:none" />
      <path
         id="path3151"
         d="m 210,-25.94 c 0.04,0.01 0.03,-0.05 0,-0.1 -0.02,-0.03 -0.01,-0.07 0,-0.11 0.02,-0.1 0.01,-0.2 0,-0.31 -0.01,-0.24 0,-0.48 0,-0.73 0,-0.18 -0.02,-0.36 -0.1,-0.52 -0.14,-0.24 -0.43,-0.36 -0.52,-0.62 -0.08,-0.2 -0.02,-0.43 -0.11,-0.63 -0.07,-0.17 -0.24,-0.27 -0.42,-0.31 -0.06,-0.02 -0.12,-0.06 -0.1,-0.11 0,0 0,0 0,0 0,0 0,0 0,0 0.04,0 0.04,-0.06 0,-0.1 -0.08,-0.1 -0.16,-0.2 -0.21,-0.31 -0.06,-0.13 -0.08,-0.28 -0.1,-0.42 -0.02,-0.14 -0.04,-0.29 -0.11,-0.42 -0.08,-0.15 -0.23,-0.26 -0.31,-0.41 -0.09,-0.17 -0.13,-0.39 -0.31,-0.42 -0.13,-0.02 -0.32,0.03 -0.31,-0.1 0,0 0,0 0,0 0.09,0.09 -0.09,-0.02 -0.11,0 0,0 0,0 0,0 0,0 0,0 0,0 0.04,0.01 0.07,0 0.11,0 0.03,-0.01 0.07,0 0.1,0 0,0 0,0 0,0 0.03,0 0.07,0 0.1,0 0.66,0.02 1.07,0.62 1.46,1.14 0.22,0.3 0.47,0.58 0.73,0.84 0.36,0.34 0.76,0.63 1.04,1.04 0.21,0.29 0.32,0.67 0.11,0.94 -0.14,0.17 -0.4,0.31 -0.31,0.52 0,0 0,0 0,0 0.06,-0.04 -0.01,0.06 0,0.1 0,0 0,0 0,0 0.03,-0.03 0.08,0.06 0,0.1 -0.05,0.03 -0.08,0.07 -0.11,0.11 -0.06,0.08 -0.13,0.15 -0.21,0.21 -0.04,0.03 -0.08,0.06 -0.1,0.1 -0.03,0.07 -0.01,0.14 0,0.21 0.01,0.1 -0.02,0.2 -0.11,0.21 -0.03,0 -0.07,-0.02 -0.1,0 -0.04,0.02 -0.04,0.08 0,0.1 0,0 0,0 0,0 0,0 0,0 0,0 z"
         inkscape:connector-curvature="0"
         style="fill:#788042;stroke:none" />
      <path
         id="path3153"
         d="m 197.81,-35.42 c -0.07,-0.03 -0.09,-0.12 -0.1,-0.21 -0.05,-0.52 0.02,-1.08 -0.21,-1.56 -0.09,-0.19 -0.28,-0.31 -0.42,-0.21 -0.08,0.07 -0.09,0.21 -0.2,0.21 -0.12,0 -0.13,-0.15 -0.21,-0.21 -0.07,-0.04 -0.17,-0.03 -0.21,-0.1 -0.04,-0.06 0,-0.14 0,-0.21 -0.01,-0.17 -0.22,-0.22 -0.42,-0.21 -0.84,0.06 -1.69,0.25 -2.29,0.84 -0.1,0.09 -0.22,0.17 -0.31,0.1 -0.13,-0.09 -0.01,-0.27 0.1,-0.42 0.17,-0.21 0.18,-0.5 0.31,-0.73 0.18,-0.28 0.5,-0.55 0.32,-0.83 -0.2,-0.29 -0.7,-0.14 -0.84,0.31 -0.01,0.07 -0.05,0.12 -0.1,0.11 -0.04,-0.01 -0.05,-0.06 -0.05,-0.11 0,-0.4 -0.2,-0.79 -0.58,-0.93 -0.19,-0.08 -0.41,-0.07 -0.62,-0.11 -0.21,-0.04 -0.41,-0.12 -0.63,-0.1 -0.11,0.01 -0.22,-0.02 -0.2,-0.11 0,0 0,0 0,0 0.1,0.09 0.14,-0.1 0.18,-0.25 0.05,-0.14 0.21,-0.18 0.36,-0.18 0.32,0 0.64,0.06 0.96,0.04 0.19,-0.02 0.37,-0.06 0.56,-0.09 0.42,-0.06 0.85,-0.01 1.27,0.08 1.38,0.28 2.61,0.99 3.85,1.65 0.96,0.52 1.94,1.01 2.71,1.77 0.34,0.34 0.69,0.72 1.15,0.63 0.07,-0.01 0.14,-0.04 0.21,0 0.68,0.42 -0.64,0.39 -0.73,0.62 -0.05,0.14 0.07,0.29 0,0.42 -0.04,0.07 -0.14,0.13 -0.11,0.21 0,0 0,0 0,0 0.31,-0.2 -0.12,-0.53 -0.73,-0.63 -0.23,-0.03 -0.42,-0.19 -0.62,-0.31 -0.2,-0.12 -0.42,-0.21 -0.63,-0.31 -0.21,-0.1 -0.41,-0.21 -0.62,-0.31 -0.13,-0.07 -0.27,-0.13 -0.42,-0.11 -0.24,0.04 -0.4,0.27 -0.41,0.52 -0.02,0.29 0.06,0.65 -0.21,0.73 -0.04,0.01 -0.07,0.02 -0.11,0 z"
         inkscape:connector-curvature="0"
         style="fill:#807c2d;stroke:none" />
      <path
         id="path3155"
         d="m 206.88,-30.1 c -0.03,-0.03 0,-0.07 0,-0.11 -0.01,-0.05 -0.06,-0.08 -0.11,-0.1 -0.21,-0.07 -0.43,-0.01 -0.62,0.1 -0.22,0.13 -0.41,0.3 -0.63,0.42 -0.42,0.22 -0.93,0.19 -1.35,0.41 -0.17,0.09 -0.36,0.15 -0.42,0 -0.07,-0.14 0.12,-0.25 0.31,-0.31 0.36,-0.11 0.6,-0.43 0.84,-0.73 0.34,-0.44 0.71,-0.89 0.73,-1.46 0,-0.43 -0.22,-0.83 -0.53,-1.14 -0.39,-0.39 -0.9,-0.62 -1.35,-0.94 -0.4,-0.28 -0.77,-0.62 -1.25,-0.73 -0.19,-0.04 -0.4,-0.05 -0.52,-0.21 -0.03,-0.04 -0.06,-0.09 -0.1,-0.1 -0.14,-0.04 -0.17,0.16 -0.21,0.31 -0.04,0.12 -0.15,0.2 -0.21,0.31 -0.03,0.05 -0.05,0.11 -0.11,0.11 -0.05,0 -0.08,-0.05 -0.1,-0.11 -0.12,-0.35 0.01,-0.72 0.21,-1.04 0.05,-0.08 0.11,-0.17 0.21,-0.21 0,0 0,0 0,0 0,0 0,0 0,0 0,0 0,0 0,0 1.13,0.02 0.17,-1.46 -1.67,-1.87 -0.88,-0.19 -1.24,-1.19 -1.98,-1.67 -0.79,-0.51 -1.82,-0.33 -2.71,-0.62 -0.73,-0.24 -1.31,-0.77 -1.98,-1.15 -0.86,-0.49 -1.3,-1.34 -0.73,-1.66 0.41,-0.23 0.79,0.2 1.15,0.52 0.67,0.58 1.62,0.59 2.5,0.73 0.83,0.13 1.64,0.41 2.29,0.93 0.89,0.72 1.39,1.8 2.29,2.5 0.61,0.48 1.44,0.65 1.88,0.11 0.76,-0.93 -0.64,-1.8 -1.15,-2.82 -0.48,-0.95 -0.03,-2.25 -0.83,-3.02 -1,-0.95 -2.57,-1.87 -1.46,-2.39 0.41,-0.19 0.8,0.19 1.15,0.52 0.39,0.38 0.87,0.65 1.25,1.04 1.03,1.05 1.16,2.61 1.35,4.06 0.19,1.44 0.59,2.95 1.88,3.54 0.37,0.17 0.78,0.24 1.14,0.42 1.27,0.66 1.39,2.37 2.4,3.33 0.76,0.74 1.89,0.91 2.71,1.57 0.28,0.23 0.52,0.52 0.83,0.73 0.35,0.24 0.65,0.58 0.42,0.83 -0.19,0.19 -0.48,0.03 -0.73,-0.1 -0.51,-0.27 -1.13,-0.22 -1.67,-0.42 -0.59,-0.22 -1.01,-0.72 -1.46,-1.15 -0.25,-0.24 -0.6,-0.42 -0.83,-0.21 -0.15,0.14 -0.23,0.4 -0.42,0.32 -0.09,-0.04 -0.11,-0.17 -0.21,-0.21 -0.08,-0.04 -0.18,0.01 -0.2,0.1 -0.04,0.11 0.04,0.22 0.1,0.32 0.18,0.28 0.25,0.63 0.46,0.89 0.03,0.05 0.07,0.08 0.1,0.13 0.08,0.12 0.1,0.27 0,0.36 -0.1,0.08 -0.25,0.05 -0.35,-0.03 -0.07,-0.05 -0.13,-0.12 -0.21,-0.1 -0.04,0 -0.08,0.02 -0.1,0 z"
         inkscape:connector-curvature="0"
         style="fill:#556b2f;stroke:none" />
    </g>
    <path
       style="fill:#000000;stroke:#000000;stroke-width:0.53940302"
       d="m 46.470839,12.75433 c -4.000545,0.02793 -7.85568,1.333592 -11.782435,1.855718 -1.638851,0.217924 -3.327969,0.271315 -4.969573,0.06871 -2.182696,-0.269428 -4.295921,-0.985079 -6.477174,-1.305893 -1.949339,-0.286519 -3.923037,-0.585882 -5.884617,-0.597787 -3.428026,-0.02122 -6.743393,1.099404 -10.1038716,1.704499 0,1.026331 -0.1997583,2.343777 0.3026926,3.065199 0.51829,0.744056 1.3925428,1.424585 1.6192944,2.432878 0.5377236,2.391391 1.3012396,4.73552 2.2774706,6.982769 0.474378,1.092095 1.369746,1.853474 2.369611,2.377955 2.407763,1.262994 5.257513,1.448742 7.898866,1.05155 3.761553,-0.565612 5.802318,-3.512479 7.359218,-6.879637 0.582722,-1.368711 0.647748,-2.948402 1.415222,-4.199372 0.45578,-0.742876 1.514311,-0.430188 2.270753,-0.432904 0.756557,-0.0027 1.397821,1.311084 1.63249,2.185612 0.830941,3.094778 2.216282,6.378257 4.969693,7.999782 4.111637,2.421561 10.58929,1.968625 13.257033,-2.398583 1.04402,-1.709212 1.332324,-3.782968 1.856126,-5.718003 0.318888,-1.178133 0.603827,-2.582677 1.737818,-3.23032 0.457586,-0.261417 0.13642,-1.304365 0.203961,-1.910639 0.07367,-0.660489 0.215597,-1.244845 -0.684575,-1.37449 -1.569982,-0.226409 -3.09293,-0.914718 -4.699745,-1.147727 -1.522715,-0.220871 -3.014594,-0.540034 -4.568258,-0.529312 z"
       id="path3322"
       inkscape:connector-curvature="0" />
    <path
       style="fill:#eeeeee;stroke:#000000;stroke-width:0.53940302"
       d="m 20.022871,13.853971 c 1.135674,-0.0074 2.266433,0.07932 3.370193,0.323056 6.576512,1.452395 6.709444,4.281519 4.002103,10.130586 -2.206087,4.765928 -6.776028,5.960088 -11.380878,4.817666 -2.122827,-0.526485 -3.574276,-2.073637 -4.258848,-4.192299 -0.722605,-2.23617 -1.269087,-4.611883 -1.145394,-6.962261 0.165804,-3.14711 3.575114,-3.589444 6.016351,-3.876196 1.120198,-0.131532 2.260914,-0.23301 3.396473,-0.240552 z"
       id="path3320"
       inkscape:connector-curvature="0" />
    <path
       style="fill:#eeeeee;stroke:#000000;stroke-width:0.53940302"
       d="m 44.035356,13.853971 c 1.135677,0.0076 2.276394,0.10902 3.396594,0.240552 2.441111,0.286752 5.850664,0.729086 6.016231,3.876196 0.12369,2.350378 -0.422795,4.726091 -1.145392,6.962261 -0.684581,2.118662 -2.136026,3.665814 -4.258733,4.192299 -4.604728,1.142422 -9.17479,-0.05174 -11.380999,-4.817666 -2.707337,-5.849067 -2.574286,-8.678191 4.002224,-10.130586 1.103766,-0.243735 2.234522,-0.330483 3.370075,-0.323056 z"
       id="path2830"
       inkscape:connector-curvature="0" />
  </g>
</svg>
